<?xml version="1.0" encoding="utf-8"?>
<!-- Generator: Adobe Illustrator 26.2.1, SVG Export Plug-In . SVG Version: 6.00 Build 0)  -->
<svg version="1.0" id="Capa_1" xmlns="http://www.w3.org/2000/svg" xmlns:xlink="http://www.w3.org/1999/xlink" x="0px" y="0px"
	 viewBox="0 0 36 42" style="enable-background:new 0 0 36 42;" xml:space="preserve">
<style type="text/css">
	.st0{fill:url(#Sustracci贸n_6_00000181047846478886297830000014610549594103285140_);}
</style>
<g id="Grupo_149" transform="translate(0.553 0.693)">
	<g id="Grupo_76" transform="translate(0 0)">
		
			<linearGradient id="Sustracci贸n_6_00000088105111309928653210000016171420231884133279_" gradientUnits="userSpaceOnUse" x1="-9.2905" y1="46.0338" x2="-6.3315" y2="45.0518" gradientTransform="matrix(33.435 0 0 -38.811 274.8118 1786.3871)">
			<stop  offset="0" style="stop-color:#BB9472"/>
			<stop  offset="7.800000e-02" style="stop-color:#CAB08F"/>
			<stop  offset="0.225" style="stop-color:#EEC593"/>
			<stop  offset="0.323" style="stop-color:#F1E39C"/>
			<stop  offset="0.506" style="stop-color:#D7B77C"/>
			<stop  offset="0.591" style="stop-color:#CE9E63"/>
			<stop  offset="0.681" style="stop-color:#EEC579"/>
			<stop  offset="0.752" style="stop-color:#D9B36B"/>
			<stop  offset="0.872" style="stop-color:#BF8A47"/>
			<stop  offset="1" style="stop-color:#756773"/>
			<stop  offset="1" style="stop-color:#4D404B"/>
		</linearGradient>
		<path id="Sustracci贸n_6" style="fill:url(#Sustracci贸n_6_00000088105111309928653210000016171420231884133279_);" d="M17.6,39.7
			L17.6,39.7c-0.1-0.1-3.2-3.1-3.3-6.9c-0.1-2.8,0.1-5.6,0.7-8.3c-2,1.7-4.2,3.3-6.5,4.5c-1.4,0.7-2.9,1.1-4.5,1.1
			c-1.1,0-2.1-0.1-3.2-0.4c0.1-0.5,1.2-4.4,4.4-6.2c2.3-1.4,4.7-2.5,7.2-3.4C10,19.3,7.6,18.3,5.3,17c-3.4-1.8-4.6-6.1-4.6-6.1
			c0,0,0,0,0,0c1.1-0.3,2.2-0.5,3.4-0.5c1.5,0,2.9,0.3,4.2,1c2.3,1.2,4.4,2.6,6.4,4.2c-0.5-2.5-0.7-5.1-0.6-7.7
			c0-3.9,3.2-6.9,3.2-6.9c0.3,0.3,3.2,3.3,3.2,6.9c0,2.4-0.1,4.8-0.5,7.2c1.8-1.4,3.8-2.6,5.8-3.7c1.3-0.7,2.7-1,4.2-1
			c1.2,0,2.3,0.2,3.4,0.5c-0.1,0.5-1.3,4.4-4.6,6.1c-2.2,1.2-4.5,2.3-6.9,3.1c2.7,0.8,5.2,2,7.6,3.4c3.4,1.9,4.4,6.2,4.5,6.2
			c0,0,0,0,0,0c-1,0.3-2.1,0.4-3.2,0.4c-1.5,0-3.1-0.3-4.4-1.1c-2.4-1.3-4.7-2.8-6.7-4.7c0.7,2.7,1,5.6,0.9,8.4
			C20.8,36.6,17.7,39.6,17.6,39.7L17.6,39.7z M17.4,16.7c-1.7,0-3,1.4-3,3s1.4,3,3,3c1.7,0,3-1.4,3-3c0,0,0,0,0,0
			C20.4,18.1,19.1,16.7,17.4,16.7L17.4,16.7z"/>
	</g>
</g>
</svg>
