<?xml version="1.0" encoding="utf-8"?>
<!-- Generator: Adobe Illustrator 26.2.1, SVG Export Plug-In . SVG Version: 6.00 Build 0)  -->
<svg version="1.0" id="Capa_1" xmlns="http://www.w3.org/2000/svg" xmlns:xlink="http://www.w3.org/1999/xlink" x="0px" y="0px"
	 viewBox="0 0 208 78" style="enable-background:new 0 0 208 78;" xml:space="preserve">
<style type="text/css">
	.st0{fill:#FFFFFF;}
	.st1{fill:url(#Trazado_316_00000150099271036211622000000005742569998517720230_);}
</style>
<g id="Grupo_152" transform="translate(-7191.123 -4085.46)">
	<path id="Trazado_315" class="st0" d="M7258.6,4118.3l-0.3,0c-0.1-0.1-0.3-0.1-0.5-0.1c-0.4,0-0.7,0.3-0.9,0.6
		c-0.2,0.3-1,1.5-2.4,3.6s-3.2,4.6-5.2,7.4s-3.9,5.6-5.7,8.2c-1.8,2.5-3.2,4.5-4.2,5.8c-6.3,8.5-11,13.5-14.1,14.9
		c-0.5,0.3-1.1,0.5-1.7,0.5c-0.2,0-0.4,0-0.6-0.1c0,0-0.2-0.1-0.7-0.9c-0.5-1-0.8-2.2-0.7-3.4c0-0.9,0.1-1.8,0.2-2.7
		c0.8-5.9,4.5-14.6,11.1-25.9c0.4-0.8,1.2-2.1,2.4-4.1l3.9-6.5c3.2-5.3,5.5-9.3,6.9-11.9c1.2-2.1,2.2-4.3,3.1-6.6
		c0.8-2,1.3-4,1.4-6.2c0-2-0.7-3.4-2.2-4c-0.8-0.3-1.6-0.4-2.4-0.4c-0.9,0-1.8,0.2-2.7,0.5c-3.5,1.2-8.7,5-15.2,11.2
		c-5.9,5.4-12.9,13.4-20.8,23.6c-2.6,3.3-4.5,5.7-5.8,7.4s-2.2,2.9-2.8,3.6c-0.6,0.7-1,1.2-1.2,1.5l-0.1,0.1
		c0.1-0.5,0.2-1.1,0.4-1.8c0.2-0.8,0.4-1.5,0.5-2.1c2.6-8.8,8.2-20.4,16.5-34.6c0.7-1.2,1.3-2.2,1.8-3.2c0.6-1,0.9-1.6,1-1.9
		c0.3-0.5,0.5-1.1,0.5-1.7c0-0.6-0.3-1.5-2.1-1.6h-0.3c-1,0-2,0.5-2.7,1.2c-1.3,1.4-2.5,3-3.6,4.7c-7,10.3-12,21.8-14.8,33.9
		c-0.6,2.5-0.9,5.1-1.1,7.8c0,0.6,0,1.1,0.2,1.7l0,0.1c0.3,0.6,0.8,1,1.4,1.1c0.2,0,0.5,0.1,0.7,0.1c0.4,0,0.8-0.1,1.2-0.2
		c0.4-0.2,0.8-0.5,1.1-0.9c0.4-0.5,1.1-1.3,2-2.4s2.1-2.7,3.7-4.9c5-6.6,8.8-11.5,11.3-14.5c8.7-10.4,16.5-18.1,23.1-22.8
		c1.3-0.9,2.6-1.7,4-2.4c0.9-0.5,1.9-0.9,3-1.2c0.1,0,0.1,0,0.2,0c0,0.1,0,0.1,0,0.2l0,0.1c0.1,0.3,0.1,0.6,0.1,0.8
		c0,0.2,0,0.4,0,0.5c-0.3,2-1,4-2,5.8c-1.3,2.5-3.4,6.2-6.4,11.1c-4.5,7.3-8,13.1-10.2,17.2c-2.1,3.9-4,7.9-5.7,12
		c-2.8,7-4.3,12.7-4.3,16.9c0,0.7,0,1.3,0,1.7c0,0.4,0,0.7,0.1,1.1c0.1,0.3,0.2,0.6,0.3,1c0.6,2,2.1,3.5,4.1,4h0
		c0.4,0.1,0.8,0.1,1.1,0.1c0.4,0,0.8,0,1.2-0.1c0.6-0.1,1.2-0.2,1.8-0.4c2.8-1,6.3-4.2,10.7-9.8c0.8-1,2-2.7,3.8-5.2
		c1.8-2.5,3.5-5,5.3-7.5c0.8-1.1,1.6-2.4,2.6-3.8c0.9-1.2,1.6-2.3,2.2-3.2c8-11.6,8-12.1,8-12.4L7258.6,4118.3z"/>
	<path id="Trazado_317" class="st0" d="M7395.4,4091.7c-0.5,0-0.9,0.4-1.4,1.3c-1.5,2.4-4.1,3.8-7.7,4.3c-0.6,0.1-1.3,0.1-1.9,0.1
		c-3.8-0.1-7.5-1-10.9-2.5c-0.5-0.2-1.4-0.6-2.5-1.2c-1.2-0.6-2.4-1.2-3.7-1.8c-2.9-1.6-6-3-9.2-4c-1.7-0.5-3.6-0.8-5.4-0.8
		c-0.5,0-1,0-1.5,0.1c-3.7,0.1-7.4,1.1-10.7,2.8c-0.6,0.3-1.2,0.6-1.8,1s-1.1,0.7-1.4,0.9c-1.2,0.9-2.3,2-3.2,3.1
		c-1,1.2-1.9,2.4-2.7,3.8c-0.9,1.4-1.4,3-1.5,4.6c0,0.3-0.1,0.5-0.1,0.8c0,0.4,0.1,0.9,0.3,1.3c0.3,0.5,0.8,0.7,1.4,0.6h1.8
		l-1.1-1.1c-0.2-0.2-0.3-0.5-0.2-0.8c0-0.5,0.1-1.1,0.2-1.6c0.8-2.7,2.4-5.2,4.5-7.1c2.2-2.3,5-4,8.1-5c2.3-0.8,4.8-1.2,7.2-1.3
		c1.5,0,3,0.2,4.4,0.6l0.6,0.2l-0.1,0.1c-0.6,0.8-1,1.6-1.5,2.5c-0.7,1.3-1.3,2.7-1.9,4.1c-1.7,4.1-3,7.3-3.8,9.4s-1.8,4.8-2.9,8
		l-0.9,2.4c-0.3,0.9-0.6,1.6-0.8,2.2l-0.7,1.8h-3.2c-1.3,0-2.2,0-2.8,0.1c-0.5,0-1.3,0.1-1.3,0.7c0,0.4,0.4,0.7,0.8,0.9
		c0.2,0.1,0.4,0.2,0.6,0.2c0.3,0.1,0.7,0.1,1,0.1c0.4,0,1,0,1.9,0.1l2.1,0l-0.5,1c-1.9,4.3-4.2,8.4-6.6,12.4
		c-2.3,3.9-4.9,7.5-7.8,11.1c-7.1,8-14.2,12.2-20.9,12.2h-0.5v1.6h2c0.7,0,1.4,0,2-0.1c8.8-1.2,17.9-8,27.1-20.2
		c1.9-2.5,3.6-5,5.3-7.7c1.6-2.5,3.3-5.8,5.2-9.5l0.5-1l5.1-0.1c1.5,0,2.8-0.1,3.9-0.1c1,0,1.6-0.1,1.7-0.1h0.1l0.1,0
		c0.5-0.1,0.5-0.5,0.5-0.6c0-0.2-0.1-0.4-0.2-0.5l-0.1-0.1l-0.2,0c-1.8-0.2-3.6-0.2-5.5-0.2c-1.5,0-2.7,0-3.7,0c-0.3,0-0.6,0-0.8,0
		c0.1-0.1,0.1-0.3,0.3-0.6l1.2-2.6c2.4-5.3,4.5-10.4,6.3-15.4c1.8-5,2.8-8.4,2.9-10.2c0-0.1,0-0.1,0-0.2l0.5,0.2
		c0.6,0.3,1.4,0.6,2.3,1c3.9,2,8,3.6,12.2,4.9c2.7,0.8,5.4,1.2,8.2,1.2c0.4,0,0.8,0,1.2-0.1c5.5-0.2,9.2-2,10.9-5.2
		c0.2-0.4,0.4-0.8,0.5-1.3C7396.3,4092.1,7396,4091.7,7395.4,4091.7z"/>
	
		<linearGradient id="Trazado_316_00000171685314935434993310000002831026190487698111_" gradientUnits="userSpaceOnUse" x1="7179.3599" y1="4155.1548" x2="7180.3599" y2="4155.1548" gradientTransform="matrix(38.6958 0 0 -53.8838 -270542.75 228019.75)">
		<stop  offset="0" style="stop-color:#BB9472"/>
		<stop  offset="7.800000e-02" style="stop-color:#CAB08F"/>
		<stop  offset="0.225" style="stop-color:#EEC593"/>
		<stop  offset="0.323" style="stop-color:#F1E39C"/>
		<stop  offset="0.506" style="stop-color:#D7B77C"/>
		<stop  offset="0.591" style="stop-color:#CE9E63"/>
		<stop  offset="0.681" style="stop-color:#EEC579"/>
		<stop  offset="0.752" style="stop-color:#D9B36B"/>
		<stop  offset="0.872" style="stop-color:#BF8A47"/>
		<stop  offset="1" style="stop-color:#756773"/>
		<stop  offset="1" style="stop-color:#4D404B"/>
	</linearGradient>
	<path id="Trazado_316" style="fill:url(#Trazado_316_00000171685314935434993310000002831026190487698111_);" d="M7306.9,4100
		c-0.1-1.2-0.9-2.2-2.1-2.5c-0.4-0.1-0.7-0.2-1.1-0.2l-0.5,0c-0.4,0.1-0.8,0.1-1.2,0.3l-0.2,0c-0.1,0-0.3,0.1-0.4,0.1l-0.1,0
		c-0.2,0-0.3,0.1-0.5,0.2l-0.2,0.1c-0.2,0.1-0.5,0.2-1,0.4c-2.5,1.3-4.8,3-6.8,5.1c-2.3,2.4-4.2,5-5.8,7.9c-0.3,0.5-0.5,0.9-0.8,1.4
		l-0.7,1.5l-0.1,0.2c0,0.1-0.1,0.2-0.1,0.3c-0.1,0.1-0.1,0.2-0.1,0.4l-0.1,0.2l0,0.1c-0.1,0.2-0.2,0.5-0.4,1
		c-0.2,0.5-0.4,1.1-0.5,1.7c-0.2,0.5-0.3,0.9-0.4,1.4c-0.1,0.6-0.3,1.2-0.3,1.7v0.1c0,0.1,0,0.2,0,0.2c0,0,0,0.1-0.1,0.1
		c-0.1,0.1-0.3,0.3-0.5,0.5l-0.1,0l-0.2,0.2c-0.9,0.9-2.2,2-3.7,3.5s-2.7,2.7-3.5,3.6c-1.6,1.9-3.1,3.8-4.5,5.9
		c-0.4,0.6-0.7,1.2-1,1.8c-0.3,0.7-0.6,1.2-0.7,1.5l-0.1,0.3l0,0.2c-0.1,0.2-0.2,0.4-0.2,0.6c-0.1,0.3-0.2,0.7-0.3,1
		c-0.1,0.3-0.2,0.6-0.2,0.8l0,0.1c-0.1,0.6-0.1,1.2-0.1,1.9c0,0.6,0,1.3,0.1,1.9c0.4,2.1,1.7,3.8,3.6,4.7c0.1,0,0.2,0.1,0.3,0.1
		c0.2,0.1,0.5,0.2,0.7,0.3c0.3,0.1,0.7,0.2,1.1,0.2c0.4,0.1,0.8,0.1,1.2,0.1c0.6,0,1.1,0,1.7-0.1c0.6,0,1.2-0.2,1.8-0.4
		c0.1,0,0.2-0.1,0.3-0.1l0.2-0.1c0.1,0,0.3-0.1,0.4-0.1l0.1,0l1-0.4c1.2-0.5,2.4-1.1,3.4-1.8c1.2-0.8,2.3-1.6,3.4-2.5
		c0.5-0.5,1.1-1.1,1.7-1.7c0.5-0.5,0.9-1,1.3-1.5c0.7,0.7,1.3,1.4,2.1,2c0.1,0.1,0.2,0.2,0.4,0.3c0.1,0.1,0.3,0.2,0.4,0.3
		c0.2,0.2,0.4,0.3,0.6,0.4c0.1,0.1,0.2,0.2,0.3,0.2c0.2,0.1,0.3,0.2,0.5,0.3l0.1,0.1c0.2,0.2,0.4,0.3,0.6,0.4
		c0.2,0.1,0.4,0.2,0.6,0.3c0.2,0.1,0.4,0.2,0.6,0.3l0.7,0l0.2-0.1c0.2-0.1,0.3-0.2,0.5-0.3c0.3-0.2,0.5-0.6,0.5-1v-0.1l0-0.1
		c0-0.2-0.1-0.4-0.2-0.6l0-0.2l-0.4-0.4c-0.1-0.1-0.3-0.2-0.5-0.3c-0.8-0.5-1.5-1.1-2.2-1.7c-0.8-0.7-1.6-1.4-2.3-2.2l-0.2-0.2
		c-0.1-0.1-0.1-0.2-0.2-0.2l0,0l0.2-0.3c0.2-0.4,0.4-0.7,0.6-1.2c0-0.1,0.1-0.2,0.1-0.3c0.1-0.3,0.2-0.5,0.3-0.7
		c0.3-1,0.6-2,0.7-3.1c0.1-0.5,0.1-0.9,0.1-1.4c0-0.3,0-0.6,0-0.9s0-0.7,0-1.2c0-0.4,0-0.9-0.1-1.3l-0.4-1.8l0-0.2
		c-0.1-0.4-0.2-0.7-0.3-1.1l-0.1-0.2l-0.2-0.2c-0.3-0.2-0.6-0.3-0.9-0.3c-0.3,0-0.5,0.1-0.7,0.2c-0.3,0.1-0.5,0.3-0.7,0.5
		c-0.3,0.3-0.4,0.7-0.4,1.1c0,0.4,0.2,0.7,0.4,1.1l0,0.1c0.1,0.3,0.1,0.6,0.2,0.9l0.3,2.1c0,0.1,0,0.2,0,0.3c0,0.1,0,0.3,0,0.6
		c0,0.2,0,0.4-0.1,0.6l0,0.1c0,0,0,0.1,0,0.2c0,0.2-0.1,0.3-0.1,0.5c0,0.1,0,0.2,0,0.3c0,0.2-0.1,0.5-0.1,0.7
		c-0.1,0.3-0.2,0.6-0.3,1.2c-0.1,0.4-0.2,0.8-0.3,1.1l-0.2-0.2c-0.4-0.5-0.6-1-0.8-1.3l-0.4-0.8c-0.2-0.4-0.4-0.7-0.5-1
		c-0.1-0.1-0.1-0.2-0.1-0.4l0,0l-0.3-1l-0.1,0c-0.3-0.7-0.5-1.4-0.7-2.1c-0.2-0.9-0.4-1.9-0.6-2.9c0-0.2,0-0.5,0-0.7l0-0.2
		c0-0.1,0-0.1,0-0.2l-0.1-1l0.9-0.8c0.4-0.4,1-0.9,1.7-1.6c0.7-0.7,1.5-1.5,2.2-2.2c1.9-1.8,3.4-3.3,4.5-4.4l2.8-2.8
		c1.5-1.5,2.9-3.1,4.2-4.8c0.1-0.1,0.3-0.3,0.5-0.6c0.1-0.2,0.2-0.3,0.4-0.5c0.6-0.8,1.2-1.7,1.7-2.6c0.5-0.7,0.8-1.5,1.1-2.3l0-0.1
		c0-0.1,0-0.1,0-0.2l0.1-0.2c0,0,0-0.1,0-0.1c0.1-0.2,0.2-0.4,0.2-0.7c0-0.2,0-0.4,0-0.6c0-0.1,0.1-0.3,0.1-0.5
		C7307,4100.4,7307,4100.2,7306.9,4100z M7286.1,4120.7l-0.2-0.1v-0.2L7286.1,4120.7z M7293.5,4113.3c-0.1,0.1-0.2,0.2-0.3,0.2
		c-0.7,0.6-1.6,1.4-2.6,2.2c-1,0.9-1.9,1.7-2.7,2.3l-0.2,0.2c-0.2,0.1-0.3,0.3-0.4,0.4c0-0.2,0.1-0.3,0.1-0.4c0-0.1,0-0.1,0.1-0.2
		l0-0.1l0.1-0.1c0.1-0.1,0.1-0.3,0.1-0.4c0.3-0.9,0.6-1.8,1-2.7c0.3-0.9,0.7-1.7,1.1-2.4c0-0.1,0.1-0.1,0.1-0.2l0.1-0.1l0-0.1v0
		c0.1-0.1,0.1-0.3,0.2-0.4l0.6-1c0.2-0.4,0.4-0.7,0.6-0.9c1.6-2.4,3.5-4.5,5.6-6.3c1.7-1.5,3.6-2.6,5.7-3.3c0.3-0.1,0.6-0.1,0.9-0.1
		h0.3c0.1,0,0.2,0,0.3,0c0,0.1,0,0.2,0,0.2c0,0.1,0,0.2,0,0.3l0,0.1c0,0.1,0,0.1,0,0.1c-1,2.6-3.8,6.2-8.5,10.7
		C7294.9,4112,7294.1,4112.7,7293.5,4113.3L7293.5,4113.3z M7277.8,4147.6c-0.5,0.1-1,0.1-1.6,0.1c-1,0.1-2-0.3-2.7-0.9
		c-0.3-0.3-0.5-0.7-0.7-1.1c-0.1-0.3-0.1-0.6-0.1-0.9v-0.4c0-0.2,0-0.3,0-0.5c0.6-2.1,1.6-4.1,2.8-5.9c0.7-1.1,1.6-2.3,2.7-3.7
		s2.2-2.7,3.3-3.8l2-2.1c0,0.1,0,0.2,0,0.3c0,0.3,0.1,0.6,0.2,1c0,0.2,0.1,0.4,0.1,0.5c0,0.1,0.1,0.2,0.1,0.3l0,0.1
		c0.4,1.7,1,3.3,1.8,4.9c0.3,0.6,0.6,1.3,1,1.9c0.3,0.5,0.7,1.1,1.3,1.9c0.2,0.3,0.4,0.5,0.5,0.7l0.2,0.3c0,0,0,0.1-0.1,0.1
		l-0.1,0.1c-1.3,1.6-2.8,3-4.5,4.2c-1.5,1.1-3.2,2-5.1,2.6c-0.2,0-0.4,0.1-0.5,0.2l-0.3,0.1
		C7278,4147.6,7277.9,4147.6,7277.8,4147.6L7277.8,4147.6z"/>
</g>
</svg>
